<svg width="20" height="20" viewBox="0 0 20 20" fill="none" xmlns="http://www.w3.org/2000/svg">
<g clip-path="url(#clip0_6190_64088)">
<path d="M14.6074 4.92199C14.6074 5.15764 14.4169 5.34815 14.1805 5.34815C13.9441 5.34815 13.7543 5.15694 13.7543 4.92199C13.7543 4.68703 13.9448 4.49512 14.1805 4.49512C14.4162 4.49512 14.6074 4.68633 14.6074 4.92199Z" fill="white"/>
<path d="M9.8349 6.42574C9.8349 6.91188 10.23 7.30699 10.7154 7.30699H11.3977V6.91047H10.7154C10.4487 6.91047 10.2314 6.69315 10.2314 6.42645C10.2314 6.15974 10.448 5.94243 10.7154 5.94243H11.3977V5.5459H10.7154C10.2293 5.5459 9.8349 5.94102 9.8349 6.42645V6.42574Z" fill="white"/>
<path d="M11.4979 6.42574C11.4979 6.91188 11.893 7.30699 12.3799 7.30699H13.0622V6.91047H12.3799C12.1132 6.91047 11.8952 6.69315 11.8952 6.42645C11.8952 6.15974 12.1132 5.94243 12.3799 5.94243H13.0622V5.5459H12.3799C11.8937 5.5459 11.4979 5.94102 11.4979 6.42645V6.42574Z" fill="white"/>
<path d="M15.9719 4.92199C15.9719 5.15764 15.7814 5.34815 15.5458 5.34815C15.3101 5.34815 15.1189 5.15694 15.1189 4.92199C15.1189 4.68703 15.3101 4.49512 15.5458 4.49512C15.7814 4.49512 15.9719 4.68633 15.9719 4.92199Z" fill="white"/>
<path d="M15.5465 5.54492C15.2713 5.54492 15.0257 5.67122 14.8635 5.86948C14.7019 5.67122 14.4556 5.54492 14.1805 5.54492C13.695 5.54492 13.2999 5.94004 13.2999 6.42547V7.30672H13.6965V6.42547C13.6965 6.15877 13.9138 5.94145 14.1805 5.94145C14.4472 5.94145 14.6645 6.15877 14.6645 6.42547V7.30672H15.061V6.42547C15.061 6.15877 15.2783 5.94145 15.5457 5.94145C15.8132 5.94145 16.0298 6.15877 16.0298 6.42547V7.30672H16.4263V6.42547C16.4263 5.94004 16.0312 5.54492 15.5457 5.54492H15.5465Z" fill="white"/>
<path d="M19.2147 6.10739C18.7109 4.91639 17.9898 3.84746 17.0719 2.92881C16.1532 2.01087 15.0836 1.28978 13.8926 0.786002C12.66 0.264588 11.3505 0 10.0007 0C8.65096 0 7.34072 0.264588 6.10809 0.786002C4.91639 1.28978 3.84746 2.01087 2.92951 2.92881C2.01087 3.84675 1.29048 4.91639 0.786707 6.10739C0.264588 7.34072 0 8.65025 0 10C0 11.2425 0.225781 12.4554 0.669583 13.6054C0.735201 13.7748 0.897481 13.8785 1.06823 13.8785C1.11903 13.8785 1.17195 13.8693 1.22275 13.8496C1.44288 13.7642 1.55225 13.5173 1.46687 13.2971C1.06047 12.2458 0.854442 11.1367 0.854442 10C0.854442 8.76455 1.09645 7.5672 1.57341 6.43971C2.03415 5.35102 2.69385 4.3724 3.53348 3.53277C4.37381 2.69315 5.35173 2.03344 6.44041 1.57271C7.56791 1.09645 8.76526 0.854442 10.0007 0.854442C11.2362 0.854442 12.4328 1.09645 13.5603 1.57271C14.649 2.03344 15.6276 2.69315 16.4672 3.53277C17.3076 4.3724 17.9666 5.35102 18.4273 6.43971C18.9043 7.5672 19.1456 8.76455 19.1456 10C19.1456 11.1367 18.9395 12.2458 18.5331 13.2971C18.4478 13.5173 18.5571 13.7649 18.778 13.8496C18.9981 13.9349 19.245 13.8256 19.3304 13.6054C19.7749 12.4554 20.0007 11.2425 20.0007 10C20.0007 8.65025 19.7361 7.34072 19.2147 6.10739Z" fill="white"/>
<path d="M14.9509 16.2993C14.9509 16.19 14.8507 16.1138 14.7124 16.1138C14.5742 16.1138 14.4747 16.1879 14.4747 16.2993C14.4747 16.4108 14.5784 16.4842 14.7124 16.4842C14.8465 16.4842 14.9509 16.408 14.9509 16.2993Z" fill="white"/>
<path d="M5.11606 16.7271C4.89099 16.7271 4.73859 16.7906 4.73859 16.9161C4.73859 17.0417 4.89099 17.1031 5.11606 17.1031C5.34114 17.1031 5.49354 17.0424 5.49354 16.9161C5.49354 16.7898 5.34396 16.7271 5.11606 16.7271Z" fill="white"/>
<path d="M11.4816 16.1987C11.6545 16.1987 11.7519 16.0964 11.7519 15.9835C11.7519 15.8537 11.6602 15.7563 11.4816 15.7563C11.3031 15.7563 11.2079 15.8622 11.2079 15.9835C11.2079 16.1049 11.3031 16.1987 11.4816 16.1987Z" fill="white"/>
<path d="M13.0734 16.0567C13.2033 16.0567 13.3225 16.0101 13.3225 15.8973C13.3225 15.7844 13.2033 15.7378 13.0734 15.7378C12.95 15.7378 12.8251 15.7844 12.8251 15.8973C12.8251 16.0101 12.95 16.0567 13.0734 16.0567Z" fill="white"/>
<path d="M18.6093 14.6676C18.5331 14.5342 18.3913 14.4517 18.2382 14.4517H1.76249C1.60868 14.4517 1.46756 14.5342 1.39136 14.6676C1.31516 14.8009 1.31728 14.9646 1.3956 15.0973C2.26627 16.5634 3.50454 17.7918 4.97846 18.6491C6.49684 19.5332 8.23325 20.0002 10.0007 20.0002C11.7681 20.0002 13.5045 19.5332 15.0229 18.6491C16.4961 17.7911 17.7351 16.5634 18.6058 15.0973C18.6841 14.9646 18.6855 14.8009 18.6093 14.6676ZM14.2002 15.7464H14.6087V15.5629H14.8084V15.7464H15.2261V15.9143H14.2002V15.7464ZM13.748 15.5855H13.9455V16.8845H13.748V16.725H13.2682V16.5606H13.748V15.5855ZM13.0741 15.5855C13.29 15.5855 13.5137 15.6843 13.5137 15.8974C13.5137 16.1104 13.29 16.2092 13.0741 16.2092C12.8582 16.2092 12.6353 16.1126 12.6353 15.8974C12.6353 15.6822 12.8589 15.5855 13.0741 15.5855ZM11.4824 15.601C11.7576 15.601 11.941 15.7626 11.941 15.9842C11.941 16.2057 11.7456 16.3567 11.4824 16.3567C11.1896 16.3567 11.0146 16.2128 11.0146 15.9842C11.0146 15.7555 11.2037 15.601 11.4824 15.601ZM7.26873 15.5855H7.46277V16.5451H7.26873V16.0999H6.90819V15.9334H7.26873V15.5855ZM4.54242 15.601H5.58525C5.6424 15.601 5.69109 15.6448 5.69109 15.7047V15.8607C5.69109 15.9496 5.66851 16.0977 5.60289 16.2297L5.4138 16.2283C5.44132 16.145 5.49565 15.9545 5.49565 15.8698V15.7781C5.49565 15.7661 5.49071 15.7612 5.47801 15.7612H4.54242V15.6017V15.601ZM5.11605 17.264C4.79572 17.264 4.53255 17.1568 4.53255 16.9155C4.53255 16.6742 4.79572 16.5655 5.11605 16.5655C5.43638 16.5655 5.70026 16.6749 5.70026 16.9155C5.70026 17.1561 5.43849 17.264 5.11605 17.264ZM5.8957 16.4442V16.4788H4.33499V16.3158H4.92766V15.9609H5.12311V16.3158H5.8957V16.4435V16.4442ZM6.03682 16.3969C6.28588 16.2918 6.46792 16.1112 6.46792 15.9588V15.7944H6.14547V15.6349H6.99991V15.7944H6.67112V15.9588C6.67112 16.1408 6.92019 16.2826 7.08035 16.3518L6.95758 16.4816C6.82423 16.4258 6.66124 16.3151 6.57446 16.2057C6.47779 16.3271 6.30281 16.4675 6.16029 16.5225L6.03752 16.3962L6.03682 16.3969ZM6.90607 17.2683C6.66054 17.2683 6.34656 17.2111 6.34656 16.9204C6.34656 16.6297 6.69652 16.5677 6.90607 16.5677C7.1502 16.5677 7.46418 16.6283 7.46418 16.9204C7.46418 17.2125 7.1502 17.2683 6.90607 17.2683ZM9.09051 17.1991V17.2337H8.89436V16.2756H8.54793C8.54793 16.6862 8.13447 16.9049 7.79438 16.9825L7.69207 16.8421C7.95031 16.78 8.34684 16.6086 8.34684 16.3017L8.34896 15.8529C8.34896 15.8409 8.3419 15.836 8.32991 15.836H7.73582V15.6695H8.44562C8.5063 15.6695 8.54793 15.7196 8.54793 15.7753V16.1097H8.89436V15.5848H9.09051V17.1991ZM10.0832 16.8075C9.88921 16.8351 9.7354 16.8527 9.43341 16.8527C9.37062 16.8527 9.32758 16.8061 9.32758 16.7483V16.1528H9.76927C9.78126 16.1528 9.7869 16.1457 9.7869 16.1337V15.8113H9.32758V15.6539H9.98446V16.3066H9.52373V16.6742C9.52373 16.6862 9.52867 16.6911 9.54137 16.6911C9.69518 16.6925 9.85605 16.6841 10.0832 16.6495V16.8068V16.8075ZM10.7451 17.1991V17.2337H10.5489V16.3017H10.3605V17.1942H10.1651V15.5834H10.3605V16.1358H10.5489V15.5834H10.7451V17.1991ZM12.0701 16.5691V16.5909L12.0454 16.6001C11.9163 16.6417 11.7752 16.6502 11.5586 16.6559V17.2259H11.361V16.6559H10.9518V16.4872H11.5028C11.7089 16.4872 11.9177 16.4682 12.0694 16.4336V16.5691H12.0701ZM12.3382 17.1991V17.2337H12.1393V15.5862H12.3382V17.1991ZM12.5654 16.2812H13.0727C13.2879 16.2812 13.5405 16.2572 13.6746 16.224V16.387L13.6506 16.3976C13.5257 16.4449 13.2795 16.4512 13.096 16.4512V16.7215H12.8956V16.4512H12.5661V16.2812H12.5654ZM13.9702 17.2013V17.2358H12.9182C12.8625 17.2358 12.8124 17.1907 12.8124 17.13V16.7941H13.0099V17.0503C13.0099 17.0623 13.0184 17.0672 13.0255 17.0672H13.9702V17.2005V17.2013ZM15.3143 16.8929V16.9127L15.2896 16.9226C15.1633 16.9691 14.9171 16.9783 14.6666 16.9783H14.1762V16.8153H14.6214V16.6403C14.419 16.6072 14.2736 16.4795 14.2736 16.2988C14.2736 16.0963 14.4655 15.951 14.7139 15.951C14.9622 15.951 15.157 16.0963 15.157 16.2988C15.157 16.4717 15.0116 16.605 14.8176 16.6382V16.8146C14.9898 16.8097 15.1767 16.792 15.315 16.7575V16.8922L15.3143 16.8929ZM15.5845 17.1998V17.2344H15.387V15.5841H15.5845V17.1998Z" fill="white"/>
<path d="M6.9082 16.7285C6.73322 16.7285 6.53918 16.7701 6.53918 16.9211C6.53918 17.0721 6.73322 17.1081 6.9082 17.1081C7.08318 17.1081 7.27368 17.0735 7.27368 16.9211C7.27368 16.7687 7.07965 16.7285 6.9082 16.7285Z" fill="white"/>
<path d="M3.48478 9.54838C3.71902 9.93292 4.34627 10.3414 4.70964 10.4557L4.96929 10.1389C4.53678 9.99642 3.6901 9.48912 3.6901 8.96135V8.44629H3.27875V8.96135C3.27875 9.50464 2.42078 9.99642 1.98474 10.1389L2.25497 10.46C2.66209 10.321 3.24277 9.90046 3.48407 9.54838H3.48478Z" fill="white"/>
<path d="M3.6908 10.2539H3.27663V11.1972H1.85632V11.5775H5.02714H5.09911V11.4985V11.1972H3.6908V10.2539Z" fill="white"/>
<path d="M11.1092 8.2832H10.6978V12.0573H11.0372H11.1092V11.9776V10.0161H11.5734V9.6393H11.1092V8.2832Z" fill="white"/>
<path d="M9.53433 9.61551V8.85068H10.2879V8.47461H8.38849V8.85068H9.12087V9.59999C9.12087 9.98099 8.64461 10.6343 8.19446 10.9399L8.48656 11.2291C8.75397 11.0506 9.1498 10.5673 9.3403 10.254C9.51316 10.5278 9.89205 10.9836 10.1588 11.1621L10.4325 10.8686C10.0254 10.5913 9.53574 10.0163 9.53574 9.61622L9.53433 9.61551Z" fill="white"/>
<path d="M11.9727 9.47282L12.2027 9.78185C12.5809 9.66685 13.1073 9.40931 13.3563 9.06429C13.6153 9.39309 14.1205 9.66685 14.517 9.78185L14.7407 9.47282C14.124 9.29431 13.7634 9.03325 13.623 8.75102L13.6054 8.71151H14.5311V8.35449H12.1851V8.71151H13.1186L13.1009 8.74749C12.9386 9.04877 12.6035 9.28655 11.9727 9.47282Z" fill="white"/>
<path d="M11.7208 10.337H13.1475V10.67C12.4885 10.7138 12.1315 10.9755 12.1315 11.3996C12.1315 11.8751 12.5675 12.1327 13.35 12.1327C14.1325 12.1327 14.5643 11.8589 14.5643 11.3996C14.5643 10.9713 14.2115 10.7138 13.5511 10.67V10.337H14.9678V9.96094H11.7208V10.337ZM14.1529 11.3996C14.1529 11.6176 13.9116 11.7644 13.35 11.7644C12.7883 11.7644 12.5456 11.6218 12.5456 11.3996C12.5456 11.1893 12.7912 11.0228 13.35 11.0228C13.9088 11.0228 14.1529 11.1893 14.1529 11.3996Z" fill="white"/>
<path d="M7.54181 12.0574H7.88471H7.95668V11.9777V8.27979H7.54181V12.0574Z" fill="white"/>
<path d="M6.64079 9.44103H5.71086V8.44971H5.30304V10.9587C5.30304 11.0892 5.39335 11.1972 5.52318 11.1972H7.05143V8.44971H6.64079V9.44103ZM6.64079 10.7809V10.8204H5.74755C5.72215 10.8204 5.71156 10.8084 5.71156 10.7809V9.82133H6.6415V10.7809H6.64079Z" fill="white"/>
<path d="M17.613 10.4359H17.9447H18.0166V10.3569V8.2832H17.613V10.4359Z" fill="white"/>
<path d="M16.1821 9.62734C16.3437 9.86935 16.7621 10.1664 17.0796 10.2814L17.3103 9.98436C16.8962 9.78186 16.3733 9.45307 16.3733 9.04454V8.33545H15.9514V9.05301C15.9514 9.50881 15.5013 9.90534 15.0582 10.1389L15.3277 10.4239C15.7066 10.2101 16.0128 9.87711 16.1821 9.62734Z" fill="white"/>
<path d="M15.6523 11.8316C15.6523 11.9706 15.7461 12.0693 15.8724 12.0693H17.9877V11.8316V10.6582H15.6523V11.8316ZM16.0488 11.023H17.5905V11.7046H16.0848C16.0594 11.7046 16.0488 11.6926 16.0488 11.665V11.023Z" fill="white"/>
</g>
<defs>
<clipPath id="clip0_6190_64088">
<rect width="20" height="20" fill="white"/>
</clipPath>
</defs>
</svg>
